<?xml version="1.0" encoding="utf-8"?>
<!-- Svg Vector Icons : http://www.onlinewebfonts.com/icon -->
<!DOCTYPE svg PUBLIC "-//W3C//DTD SVG 1.1//EN" "http://www.w3.org/Graphics/SVG/1.1/DTD/svg11.dtd">
<svg version="1.1" xmlns="http://www.w3.org/2000/svg" xmlns:xlink="http://www.w3.org/1999/xlink" x="0px" y="0px" viewBox="0 0 256 256" enable-background="new 0 0 256 256" xml:space="preserve">
<metadata> Svg Vector Icons : http://www.onlinewebfonts.com/icon </metadata>
<g><g><path fill="#000000" d="M159.3,90c0-16.4-13.3-29.7-29.7-29.7c-16.4,0-29.7,13.3-29.7,29.7c0,16.4,13.3,29.7,29.7,29.7C146,119.6,159.3,106.3,159.3,90z M128,10C62.8,10,10,62.8,10,128c0,65.2,52.8,118,118,118c65.2,0,118-52.8,118-118C246,62.8,193.2,10,128,10z M70.3,186.9c0,2.6-2.2,4.7-4.8,4.6c-2.6,0-4.6-2.2-4.6-4.8c0.7-29.7,20.8-55,47.9-63.7c-10.9-6.9-18.2-19.1-18.2-33c0-22.1,18.3-39.9,40.6-39c20.1,0.8,36.7,17.4,37.5,37.5c0.5,14.5-6.9,27.3-18.2,34.5c0.1,0,0.1,0,0.2,0.1c5,1.6,3.7,9.1-1.6,9.1h-0.1c-0.5,0-0.9-0.1-1.4-0.2c-5.7-1.9-11.7-2.9-17.9-2.9C97.6,129,71,154.9,70.3,186.9z M199.9,169.6h-25v25c0,2.6-2.1,4.7-4.7,4.7c-2.6,0-4.7-2.1-4.7-4.7v-25h-25c-2.6,0-4.7-2.1-4.7-4.7c0-2.6,2.1-4.7,4.7-4.7h25v-25c0-2.6,2.1-4.7,4.7-4.7c2.6,0,4.7,2.1,4.7,4.7v25h25c2.6,0,4.7,2.1,4.7,4.7C204.5,167.5,202.4,169.6,199.9,169.6z"/></g></g>
</svg>